HIERARCHY
ROOT Hips
{
	OFFSET -0.001795 -0.223333 0.028219
	CHANNELS 6 Xposition Yposition Zposition Zrotation Yrotation Xrotation 
	JOINT LeftUpLeg
	{
		OFFSET 0.069520 -0.091406 -0.006815
		CHANNELS 3 Zrotation Yrotation Xrotation
		JOINT LeftLeg
		{
			OFFSET 0.034277 -0.375199 -0.004496
			CHANNELS 3 Zrotation Yrotation Xrotation
			JOINT LeftFoot
			{
				OFFSET -0.013596 -0.397961 -0.043693
				CHANNELS 3 Zrotation Yrotation Xrotation
				JOINT LeftToe
				{
					OFFSET 0.026358 -0.055791 0.119288
					CHANNELS 3 Zrotation Yrotation Xrotation
					End Site
					{
						OFFSET 0.000000 0.000000 0.000000
					}
				}
			}
		}
	}
	JOINT RightUpLeg
	{
		OFFSET -0.067670 -0.090522 -0.004320
		CHANNELS 3 Zrotation Yrotation Xrotation
		JOINT RightLeg
		{
			OFFSET -0.038290 -0.382569 -0.008850
			CHANNELS 3 Zrotation Yrotation Xrotation
			JOINT RightFoot
			{
				OFFSET 0.015774 -0.398415 -0.042312
				CHANNELS 3 Zrotation Yrotation Xrotation
				JOINT RightToe
				{
					OFFSET -0.025372 -0.048144 0.123348
					CHANNELS 3 Zrotation Yrotation Xrotation
					End Site
					{
						OFFSET 0.000000 0.000000 0.000000
					}
				}
			}
		}
	}
	JOINT Spine
	{
		OFFSET -0.002533 0.108963 -0.026696
		CHANNELS 3 Zrotation Yrotation Xrotation
		JOINT Spine1
		{
			OFFSET 0.005487 0.135180 0.001092
			CHANNELS 3 Zrotation Yrotation Xrotation
			JOINT Spine2
			{
				OFFSET 0.001457 0.052922 0.025425
				CHANNELS 3 Zrotation Yrotation Xrotation
				JOINT Neck
				{
					OFFSET -0.002778 0.213870 -0.042857
					CHANNELS 3 Zrotation Yrotation Xrotation
					JOINT Head
					{
						OFFSET 0.005152 0.064970 0.051349
						CHANNELS 3 Zrotation Yrotation Xrotation
						End Site
						{
							OFFSET 0.000000 0.000000 0.000000
						}
					}
				}
				JOINT LeftShoulder
				{
					OFFSET 0.078845 0.121749 -0.034090
					CHANNELS 3 Zrotation Yrotation Xrotation
					JOINT LeftArm
					{
						OFFSET 0.090977 0.030469 -0.008868
						CHANNELS 3 Zrotation Yrotation Xrotation
						JOINT LeftForeArm
						{
							OFFSET 0.259612 -0.012772 -0.027456
							CHANNELS 3 Zrotation Yrotation Xrotation
							JOINT LeftHand
							{
								OFFSET 0.249234 0.008986 -0.001171
								CHANNELS 3 Zrotation Yrotation Xrotation
								End Site
								{
									OFFSET 0.000000 0.000000 0.000000
								}
							}
						}
					}
				}
				JOINT RightShoulder
				{
					OFFSET -0.081759 0.118833 -0.038615
					CHANNELS 3 Zrotation Yrotation Xrotation
					JOINT RightArm
					{
						OFFSET -0.096012 0.032551 -0.009143
						CHANNELS 3 Zrotation Yrotation Xrotation
						JOINT RightForeArm
						{
							OFFSET -0.253742 -0.013329 -0.021401
							CHANNELS 3 Zrotation Yrotation Xrotation
							JOINT RightHand
							{
								OFFSET -0.255298 0.007772 -0.005559
								CHANNELS 3 Zrotation Yrotation Xrotation
								End Site
								{
									OFFSET 0.000000 0.000000 0.000000
								}
							}
						}
					}
				}
			}
		}
	}
}
MOTION
Frames: 17
Frame Time: 0.050000
-0.584642 0.802216 0.181507 4.215554 -9.985082 1.041260 31.208849 3.707532 -13.050663 -8.524673 3.651544 31.678864 2.562106 6.148806 3.173196 0.000000 0.000000 0.000000 -26.963177 -2.310846 -39.863875 29.800682 -12.110905 46.820376 -17.425021 -38.384429 5.582768 0.000000 0.000000 0.000000 8.711461 -3.709053 48.825656 0.046994 -0.015853 3.441589 0.453908 -9.518420 1.145816 -2.944822 1.929881 -31.522328 0.000000 0.000000 0.000000 -30.082928 -23.809600 18.591119 -27.189914 -28.371717 1.284974 32.424296 -34.138827 -7.915189 0.000000 0.000000 0.000000 23.372697 28.754560 10.283544 22.296856 16.107658 1.533796 -31.847117 30.077293 -8.142130 0.000000 0.000000 0.000000 
-0.583138 0.794251 0.161500 4.560221 -9.212167 1.201104 30.490274 2.946205 -10.630359 -7.269427 3.093107 32.429437 3.421543 8.481083 6.541391 0.000000 0.000000 0.000000 -26.731566 -2.654918 -42.620120 28.649247 -12.293407 49.030708 -17.996565 -39.053697 6.474017 0.000000 0.000000 0.000000 9.217605 -4.108497 48.566554 -0.580093 0.301056 3.520043 -0.136018 -8.660637 0.305443 -4.319675 2.646983 -30.574289 0.000000 0.000000 0.000000 -32.472163 -23.970468 18.925356 -28.014706 -25.892269 0.951510 33.255609 -37.366269 -9.144777 0.000000 0.000000 0.000000 23.495514 29.224613 11.082624 20.671529 16.169781 1.317373 -32.764206 26.698899 -7.220752 0.000000 0.000000 0.000000 
-0.576644 0.783377 0.139145 4.613024 -6.720673 1.555712 30.427648 2.418214 -10.132287 -5.803671 2.194463 33.396403 2.780973 7.079135 4.872127 0.000000 0.000000 0.000000 -27.970657 -3.869528 -44.066561 29.115707 -13.418171 49.304712 -18.912928 -40.234610 7.120207 0.000000 0.000000 0.000000 9.744328 -5.000438 49.124615 -0.542821 0.255759 2.585552 -1.052847 -7.846612 0.334419 -3.862862 2.648774 -31.197966 0.000000 0.000000 0.000000 -32.572580 -24.379279 18.514995 -30.018084 -24.776045 1.084963 31.084144 -38.595176 -8.758401 0.000000 0.000000 0.000000 23.704956 30.404937 12.570924 19.441024 16.857405 1.137080 -32.493211 22.818720 -5.844963 0.000000 0.000000 0.000000 
-0.565849 0.773283 0.114267 4.853946 -5.814794 1.914705 30.002078 2.065911 -9.391550 -5.020461 1.776048 34.015603 2.665510 6.216655 2.142545 0.000000 0.000000 0.000000 -28.604322 -4.664140 -46.704593 28.245323 -13.541323 50.432530 -19.311915 -40.369711 8.392729 0.000000 0.000000 0.000000 9.581642 -5.161893 49.178833 -1.592340 0.778338 2.458289 -0.971939 -7.354493 0.134333 -5.163828 3.289455 -32.391913 0.000000 0.000000 0.000000 -32.676978 -24.973037 18.670809 -31.073811 -23.565113 1.000348 29.000518 -39.397608 -8.258970 0.000000 0.000000 0.000000 23.765567 30.935460 13.251416 18.597900 18.179143 1.138142 -31.611360 20.421321 -4.923459 0.000000 0.000000 0.000000 
-0.551556 0.767113 0.086511 4.536209 -4.037919 1.920506 30.461538 2.041873 -10.474443 -4.707573 1.480067 36.208756 2.375064 5.770420 2.482330 0.000000 0.000000 0.000000 -29.061547 -5.596509 -47.954515 27.334467 -13.447056 50.275313 -19.879637 -40.125940 10.995295 0.000000 0.000000 0.000000 9.527127 -5.712513 50.368762 -1.648213 0.790892 1.575193 -1.506966 -6.454513 0.857293 -4.689517 3.270579 -33.356230 0.000000 0.000000 0.000000 -32.299328 -26.108979 18.727247 -31.630836 -23.640162 1.213143 25.495120 -38.755548 -6.969431 0.000000 0.000000 0.000000 23.112426 32.447829 14.777805 18.181441 20.204450 1.135781 -31.491908 19.056623 -4.433757 0.000000 0.000000 0.000000 
-0.533536 0.763537 0.056544 4.184949 -3.773280 2.333457 30.146803 2.029114 -10.960482 -4.507643 1.428679 38.068204 2.402690 5.309467 0.718078 0.000000 0.000000 0.000000 -29.096734 -5.989823 -49.953088 25.967998 -12.538581 49.373942 -19.962519 -39.086460 14.215784 0.000000 0.000000 0.000000 9.058564 -5.668922 51.209264 -2.290766 1.101102 0.934343 -1.266131 -5.918244 1.186710 -5.934032 3.833090 -35.841963 0.000000 0.000000 0.000000 -32.738582 -26.755465 19.133029 -31.943132 -23.178371 1.163284 23.541804 -37.973108 -6.191602 0.000000 0.000000 0.000000 21.737230 33.541371 15.461506 19.339953 22.160045 1.402608 -32.016648 20.053308 -4.766456 0.000000 0.000000 0.000000 
-0.512947 0.761457 0.025185 3.714031 -3.195016 3.197877 29.706232 2.257406 -13.300869 -4.229126 1.339549 41.567901 2.046981 4.579884 0.723395 0.000000 0.000000 0.000000 -28.818649 -6.373054 -51.956389 23.816547 -11.169919 47.990307 -19.979128 -37.791703 18.161604 0.000000 0.000000 0.000000 8.503375 -5.632843 51.609192 -2.008610 0.954822 -1.043862 -1.705909 -5.210096 2.961786 -5.653792 3.825157 -37.465910 0.000000 0.000000 0.000000 -32.481146 -27.251865 19.148115 -32.638346 -23.465221 1.280961 22.267336 -38.619517 -5.859235 0.000000 0.000000 0.000000 20.654453 34.797765 16.421389 20.564610 24.357081 1.654648 -33.105576 23.619745 -5.901604 0.000000 0.000000 0.000000 
-0.490427 0.757358 -0.006629 3.143553 -2.038933 3.137616 29.004740 2.276736 -14.970388 -2.812496 0.434393 45.966900 0.148046 1.834169 3.661709 0.000000 0.000000 0.000000 -29.424049 -7.160466 -52.315086 22.837234 -10.402845 45.803592 -19.929060 -36.423818 22.085328 0.000000 0.000000 0.000000 8.114490 -5.832375 52.201378 -2.500508 1.181947 -1.755148 -1.352034 -5.092866 3.156874 -5.839622 3.939874 -38.238097 0.000000 0.000000 0.000000 -33.518192 -27.881171 19.771672 -32.214041 -22.744137 1.082749 20.948705 -38.508808 -5.438481 0.000000 0.000000 0.000000 18.794848 34.652179 16.043384 23.725690 26.526267 2.376552 -34.524300 28.028298 -7.535557 0.000000 0.000000 0.000000 
-0.465761 0.750118 -0.039178 2.194621 -1.626885 2.701782 28.207973 2.231897 -15.596137 -2.128029 -0.067960 51.816642 -1.376748 1.718485 10.604884 0.000000 0.000000 0.000000 -29.389145 -7.439655 -52.926216 21.435915 -9.363211 44.041120 -19.469151 -34.760831 25.885034 0.000000 0.000000 0.000000 6.894654 -5.335566 52.276249 -2.736668 1.292670 -1.849801 -1.029173 -4.534758 3.303727 -6.512415 4.248786 -37.896791 0.000000 0.000000 0.000000 -33.449918 -28.153853 19.631802 -31.346788 -21.856438 0.866839 20.639931 -39.861080 -5.586759 0.000000 0.000000 0.000000 18.993944 35.100214 16.544237 25.351942 27.428284 2.760327 -34.678347 31.756833 -8.683614 0.000000 0.000000 0.000000 
-0.437221 0.741300 -0.073566 1.075720 -1.387979 1.936236 27.028957 2.280413 -16.965490 -2.178399 -0.172868 57.512262 -0.124827 4.757998 13.344494 0.000000 0.000000 0.000000 -29.403940 -7.519371 -52.584562 20.029681 -8.122343 41.030318 -18.802123 -33.065744 29.500413 0.000000 0.000000 0.000000 5.654134 -4.728953 51.824331 -3.417950 1.615917 -1.256456 -0.361093 -3.402750 3.916820 -6.153262 4.241182 -38.348541 0.000000 0.000000 0.000000 -32.487242 -29.251175 19.609262 -30.867714 -23.112129 1.242740 21.003610 -38.780222 -5.612446 0.000000 0.000000 0.000000 18.181835 34.847803 16.491487 26.457803 28.634380 3.075476 -33.704727 35.663909 -9.520310 0.000000 0.000000 0.000000 
-0.403574 0.733510 -0.111328 0.342566 -0.590770 0.406337 25.931628 2.238466 -18.102274 -3.724511 0.574239 62.204739 2.429013 8.788486 12.988239 0.000000 0.000000 0.000000 -29.665459 -7.833801 -51.537138 17.596914 -6.610717 38.420048 -17.289754 -30.315755 34.224778 0.000000 0.000000 0.000000 4.616021 -4.398258 51.763885 -4.232084 2.034954 0.259877 -0.105054 -3.119327 3.002519 -6.212134 4.322178 -36.968230 0.000000 0.000000 0.000000 -32.791311 -30.896710 20.576698 -28.222863 -24.296911 1.386949 19.774003 -36.977487 -5.016846 0.000000 0.000000 0.000000 18.418158 35.748998 17.155870 26.869267 28.917817 3.255773 -33.195709 36.598630 -9.628117 0.000000 0.000000 0.000000 
-0.365009 0.727515 -0.152601 -0.189038 -0.439067 -0.820373 23.777490 2.181411 -20.096184 -5.416939 1.815188 66.038539 6.403906 14.933038 12.680733 0.000000 0.000000 0.000000 -29.496607 -7.605190 -50.096901 13.964896 -4.445130 33.909679 -15.065556 -27.215566 39.338927 0.000000 0.000000 0.000000 3.214467 -3.776595 52.248449 -4.886338 2.344436 -0.358413 0.113314 -1.472018 4.737045 -5.630764 4.298913 -38.289263 0.000000 0.000000 0.000000 -32.832801 -33.478762 21.730657 -26.565637 -27.079149 1.885595 21.893373 -34.680299 -5.428396 0.000000 0.000000 0.000000 18.369933 35.780436 17.610091 27.389326 29.721107 3.341460 -32.606985 37.265234 -9.496129 0.000000 0.000000 0.000000 
-0.325009 0.728596 -0.195994 -0.366356 1.351806 -1.850507 21.953089 1.986087 -23.172109 -7.954924 3.163270 68.805642 8.532641 17.622911 1.719560 0.000000 0.000000 0.000000 -29.639350 -7.845890 -47.261323 9.409683 -2.372212 28.311585 -12.415091 -23.888349 45.477769 0.000000 0.000000 0.000000 1.793761 -3.544172 52.248878 -5.300187 2.596386 1.407878 0.862455 -0.744164 3.248805 -5.723255 4.442156 -37.234064 0.000000 0.000000 0.000000 -34.452840 -34.872043 22.748187 -24.123086 -28.957800 2.110605 22.357069 -34.986740 -5.702520 0.000000 0.000000 0.000000 19.743647 36.166061 18.541310 27.768924 28.923285 3.278022 -32.708246 36.785168 -9.326404 0.000000 0.000000 0.000000 
-0.288727 0.734025 -0.238030 -0.580775 2.414346 -2.575658 20.556981 1.818057 -25.779554 -10.378631 4.731253 69.465658 9.105992 18.370544 -5.080843 0.000000 0.000000 0.000000 -29.526574 -7.500481 -43.696642 5.391656 -0.840712 20.783944 -6.651403 -18.464067 49.352695 0.000000 0.000000 0.000000 -0.407891 -2.734275 52.164245 -4.931825 2.445140 2.958069 0.480382 1.350861 2.487730 -5.241474 4.514900 -35.776995 0.000000 0.000000 0.000000 -34.806392 -36.871946 23.169999 -22.795623 -29.916466 2.404751 21.399162 -34.968988 -5.492104 0.000000 0.000000 0.000000 20.229777 34.981324 18.724453 30.152642 28.889790 3.587631 -31.948257 38.040003 -9.243731 0.000000 0.000000 0.000000 
-0.259246 0.747369 -0.276949 -1.386389 5.864206 -3.732043 18.603111 1.136946 -28.690767 -11.441813 3.940400 69.495868 8.734705 17.281338 -7.882024 0.000000 0.000000 0.000000 -30.132867 -7.650345 -37.737087 2.926066 -0.255524 13.261822 -1.735029 -14.024533 53.214251 0.000000 0.000000 0.000000 -1.721504 -3.054103 52.506287 -4.908597 2.432867 5.387019 1.250684 2.066693 0.810797 -4.787625 4.468620 -33.655368 0.000000 0.000000 0.000000 -35.735926 -37.986909 23.604879 -21.757795 -30.529203 2.593906 23.179943 -34.651387 -6.068136 0.000000 0.000000 0.000000 20.974359 34.393157 18.984131 32.791505 28.501862 3.973018 -30.666441 38.839198 -8.947022 0.000000 0.000000 0.000000 
-0.237907 0.763411 -0.311910 -2.670407 6.926736 -3.984241 18.253951 0.931406 -29.301237 -12.458415 4.104891 66.259229 8.751733 16.769890 -12.086546 0.000000 0.000000 0.000000 -29.460267 -7.130699 -34.982905 4.032467 -0.511634 8.947513 -2.025458 -14.493435 56.826978 0.000000 0.000000 0.000000 -4.051940 -2.219995 52.274797 -4.652680 2.280360 5.947779 1.766945 3.689280 0.256198 -4.643397 4.585935 -32.954510 0.000000 0.000000 0.000000 -35.509480 -38.048178 22.633201 -19.941317 -29.610875 2.354426 21.304959 -35.611241 -5.686492 0.000000 0.000000 0.000000 22.199804 34.596528 20.125252 35.719445 28.658636 4.430652 -30.140584 39.620210 -8.842249 0.000000 0.000000 0.000000 
-0.223702 0.781402 -0.342756 -4.156045 7.790917 -3.303485 18.693354 0.900425 -30.219664 -13.215989 4.179569 62.057528 8.545780 15.819790 -13.959569 0.000000 0.000000 0.000000 -27.520793 -6.793215 -35.701775 5.750600 -0.961171 11.846456 -3.840430 -16.135776 61.123269 0.000000 0.000000 0.000000 -5.349062 -1.793755 51.328680 -4.850877 2.360974 5.283628 3.018891 4.416118 0.703787 -4.207765 4.492688 -33.069335 0.000000 0.000000 0.000000 -34.017833 -37.045377 20.999289 -21.305906 -29.721413 2.646340 21.864146 -34.923582 -5.796188 0.000000 0.000000 0.000000 21.889528 34.413580 20.201723 39.048878 28.499202 4.900189 -28.575283 41.566904 -8.656755 0.000000 0.000000 0.000000 
